<?xml version="1.0" standalone="no"?>
<!DOCTYPE svg PUBLIC "-//W3C//DTD SVG 20010904//EN"
 "http://www.w3.org/TR/2001/REC-SVG-20010904/DTD/svg10.dtd">
<svg version="1.0" xmlns="http://www.w3.org/2000/svg"
 width="400.000000pt" height="400.000000pt" viewBox="0 0 400.000000 400.000000"
 preserveAspectRatio="xMidYMid meet">
<metadata>
Created by potrace 1.15, written by Peter Selinger 2001-2017
</metadata>
<g transform="translate(0.000000,400.000000) scale(0.100000,-0.100000)"
fill="#000000" stroke="none">
<path d="M1865 3867 c-87 -29 -163 -84 -208 -150 -15 -23 -68 -122 -117 -219
l-89 -177 -193 65 c-234 79 -313 90 -417 54 -139 -47 -247 -158 -287 -296 -28
-97 -16 -178 60 -402 l65 -193 -177 -89 c-97 -49 -196 -102 -219 -117 -53 -36
-98 -92 -132 -163 -24 -50 -26 -66 -26 -180 0 -118 2 -128 29 -185 53 -107
116 -158 333 -268 l191 -97 -65 -193 c-63 -184 -66 -196 -67 -292 -1 -97 0
-104 37 -177 45 -93 122 -167 217 -212 58 -27 75 -30 160 -30 89 1 106 4 275
62 99 33 188 63 197 67 14 5 34 -28 112 -182 126 -250 176 -306 317 -353 53
-18 81 -21 159 -18 81 3 105 8 162 35 115 54 144 89 259 316 56 111 102 203
103 204 1 1 92 -27 202 -64 236 -78 297 -86 401 -55 137 42 253 158 294 294
32 104 23 167 -54 402 -47 141 -62 198 -53 204 6 5 97 53 203 106 216 109 252
139 306 254 30 63 32 74 32 183 0 113 -1 116 -38 191 -54 111 -102 149 -329
264 -155 78 -188 98 -183 112 45 115 127 390 132 443 6 69 -11 149 -47 220
-36 70 -117 146 -198 186 -73 37 -80 38 -177 37 -96 -1 -108 -4 -292 -67
l-193 -65 -97 191 c-110 218 -161 281 -268 332 -53 26 -73 29 -170 32 -71 2
-124 -2 -150 -10z m-16 -1652 c79 -63 146 -115 150 -115 3 0 71 52 150 115
118 94 149 115 177 115 23 0 38 -7 53 -26 20 -26 21 -39 21 -304 0 -265 -1
-278 -21 -304 -28 -36 -80 -36 -108 0 -20 25 -21 40 -21 215 0 104 -2 189 -5
189 -3 0 -53 -38 -111 -85 -77 -62 -114 -85 -134 -85 -21 0 -59 24 -137 86
l-108 86 -5 -195 c-4 -174 -7 -197 -24 -216 -25 -28 -73 -27 -103 1 l-23 21 0
287 c0 274 1 287 20 308 42 45 72 32 229 -93z"/>
</g>
<g>
<animateTransform
	attributeName="transform"
	type="translate"
	from="0 0"
	to="50 50"
	begin="0s"
	dur="3s"
	repeatCount="indefinite"
	/>
</g>
</svg>
