<svg id="svg" version="1.1" width="400" height="400" xmlns="http://www.w3.org/2000/svg" xmlns:xlink="http://www.w3.org/1999/xlink" style="display: block;"><g id="svgg"><path id="path0" d="M165.200 28.065 C 165.200 28.508,162.895 32.381,162.381 32.800 C 162.247 32.910,158.399 40.470,153.831 49.600 C 149.263 58.730,145.336 66.429,145.106 66.710 C 144.611 67.310,145.045 67.919,145.578 67.373 C 145.778 67.168,149.671 59.549,154.228 50.442 C 158.785 41.335,163.298 32.738,164.257 31.338 C 165.958 28.854,166.408 27.600,165.600 27.600 C 165.380 27.600,165.200 27.809,165.200 28.065 M233.896 27.853 C 233.739 28.102,234.479 29.632,235.539 31.253 C 236.600 32.874,237.787 34.830,238.177 35.600 C 238.567 36.370,240.498 40.240,242.468 44.200 C 244.439 48.160,246.573 52.390,247.211 53.600 C 247.849 54.810,249.674 58.455,251.266 61.700 C 252.858 64.945,254.397 67.600,254.685 67.600 C 255.038 67.600,254.880 67.077,254.205 66.008 C 253.652 65.132,253.200 64.229,253.200 64.000 C 253.200 63.771,252.750 62.871,252.200 62.000 C 251.650 61.129,251.197 60.277,251.194 60.108 C 251.188 59.842,245.558 48.477,243.863 45.310 C 243.536 44.700,242.155 41.950,240.792 39.200 C 238.288 34.144,236.070 30.311,235.507 30.067 C 235.338 29.993,235.200 29.678,235.200 29.367 C 235.200 29.055,235.033 28.800,234.829 28.800 C 234.625 28.800,234.396 28.485,234.320 28.100 C 234.230 27.644,234.082 27.558,233.896 27.853 M50.785 153.161 C 33.689 161.848,32.743 162.352,30.249 164.100 C 29.386 164.705,28.437 165.200,28.140 165.200 C 27.843 165.200,27.600 165.380,27.600 165.600 C 27.600 166.390,28.738 165.971,31.351 164.218 C 32.812 163.239,41.431 158.723,50.504 154.184 C 65.833 146.516,69.168 144.696,67.586 144.861 C 67.264 144.895,59.703 148.630,50.785 153.161 M332.000 145.182 C 332.000 145.391,339.951 149.539,349.670 154.399 C 359.388 159.259,368.188 163.857,369.224 164.617 C 371.037 165.949,372.400 166.389,372.400 165.643 C 372.400 165.447,371.907 165.163,371.304 165.012 C 370.701 164.860,370.116 164.614,370.004 164.465 C 368.918 163.017,332.000 144.285,332.000 145.182 M165.013 166.669 C 163.724 167.034,161.699 168.767,160.821 170.254 C 160.014 171.622,160.000 172.123,160.000 200.059 L 160.000 228.472 161.100 230.014 C 164.649 234.987,171.593 234.411,174.210 228.925 L 175.200 226.850 175.200 208.425 C 175.200 192.197,175.369 188.667,176.067 190.315 C 176.140 190.488,177.010 191.253,178.000 192.015 C 178.990 192.777,179.890 193.501,180.000 193.624 C 180.157 193.800,185.846 198.359,189.606 201.322 C 189.940 201.585,191.110 202.535,192.206 203.434 C 196.263 206.759,197.164 207.200,199.907 207.200 C 203.010 207.200,202.226 207.700,214.469 197.900 C 219.897 193.555,224.442 190.000,224.569 190.000 C 224.696 190.000,224.800 198.376,224.800 208.613 C 224.800 223.605,224.908 227.485,225.356 228.557 C 227.395 233.436,233.095 234.953,237.148 231.696 C 240.111 229.314,239.959 231.007,239.981 200.149 C 240.002 169.389,240.131 170.896,237.254 168.296 C 233.826 165.199,229.870 165.818,225.047 170.206 C 224.801 170.430,222.980 171.861,221.000 173.387 C 219.020 174.913,217.310 176.263,217.200 176.387 C 217.090 176.511,215.857 177.509,214.461 178.606 C 213.064 179.703,211.251 181.140,210.431 181.800 C 209.612 182.460,208.154 183.630,207.193 184.400 C 206.232 185.170,204.323 186.745,202.952 187.900 C 199.922 190.453,199.092 190.292,195.200 186.400 C 195.090 186.290,194.190 185.572,193.200 184.806 C 191.146 183.214,190.809 182.946,188.576 181.125 C 187.683 180.396,186.260 179.260,185.414 178.600 C 182.489 176.319,175.399 170.613,175.200 170.380 C 172.849 167.634,167.930 165.842,165.013 166.669 M171.396 168.223 C 172.225 168.785,173.130 169.460,173.407 169.723 C 173.684 169.985,174.416 170.560,175.032 171.000 C 175.648 171.440,176.899 172.430,177.812 173.200 C 178.724 173.970,180.085 175.079,180.835 175.665 C 181.586 176.251,182.595 177.061,183.078 177.465 C 183.561 177.869,184.540 178.650,185.253 179.200 C 185.967 179.750,187.211 180.740,188.016 181.400 C 188.822 182.060,190.093 183.079,190.841 183.665 C 191.588 184.251,192.650 185.103,193.200 185.558 C 193.750 186.013,194.386 186.524,194.614 186.693 C 194.841 186.862,195.953 187.765,197.085 188.700 C 198.982 190.266,200.921 190.907,201.267 190.081 C 201.406 189.748,226.467 169.626,228.662 168.086 C 231.656 165.984,237.000 167.366,238.638 170.666 C 239.559 172.520,240.073 223.451,239.212 227.435 C 238.037 232.867,230.879 234.745,227.251 230.572 C 225.246 228.267,225.184 227.583,225.208 208.116 C 225.221 198.138,225.121 189.796,224.987 189.580 C 224.782 189.248,222.727 190.356,222.000 191.191 C 221.890 191.317,220.991 192.046,220.001 192.810 C 219.012 193.575,217.842 194.500,217.401 194.866 C 215.258 196.649,212.638 198.747,209.999 200.796 C 209.009 201.564,207.840 202.522,207.400 202.925 C 203.680 206.332,199.562 207.680,197.096 206.300 C 196.323 205.867,191.823 202.468,189.400 200.486 C 188.960 200.126,186.710 198.328,184.400 196.490 C 182.090 194.652,179.405 192.484,178.433 191.674 C 175.723 189.413,175.165 189.075,174.781 189.459 C 174.588 189.652,174.378 198.448,174.315 209.005 C 174.185 230.626,174.328 229.631,171.066 231.746 C 167.643 233.965,162.942 232.617,161.203 228.917 C 160.221 226.829,159.922 173.553,160.879 171.319 C 162.577 167.355,167.836 165.807,171.396 168.223 M27.600 234.000 C 27.600 234.220,27.836 234.400,28.125 234.400 C 28.413 234.400,28.998 234.715,29.425 235.100 C 31.138 236.647,34.187 238.290,50.054 246.214 C 59.154 250.759,66.825 254.662,67.100 254.888 C 67.457 255.181,67.600 255.138,67.600 254.737 C 67.600 254.412,65.035 252.908,61.500 251.160 C 58.145 249.502,53.960 247.405,52.200 246.500 C 50.440 245.596,46.300 243.517,43.000 241.881 C 34.452 237.643,32.205 236.407,29.942 234.700 C 28.431 233.559,27.600 233.311,27.600 234.000 M369.626 234.827 C 367.060 236.686,366.608 236.926,348.888 245.823 C 339.807 250.383,332.274 254.280,332.148 254.484 C 331.754 255.122,332.352 255.338,333.007 254.794 C 333.351 254.509,341.286 250.441,350.639 245.755 C 359.993 241.069,368.514 236.597,369.576 235.817 C 370.638 235.038,371.708 234.400,371.954 234.400 C 372.199 234.400,372.400 234.220,372.400 234.000 C 372.400 233.269,371.340 233.585,369.626 234.827 M144.867 332.300 C 147.848 339.009,163.587 369.339,164.429 370.000 C 164.569 370.110,164.973 370.740,165.326 371.400 C 165.813 372.311,165.972 372.416,165.984 371.838 C 165.993 371.419,165.564 370.504,165.031 369.805 C 163.535 367.844,162.857 366.556,153.923 348.700 C 149.327 339.515,145.379 332.000,145.150 332.000 C 144.921 332.000,144.793 332.135,144.867 332.300 M254.114 332.500 C 253.903 332.775,249.929 340.609,245.284 349.910 C 240.638 359.210,236.109 367.858,235.219 369.127 C 233.604 371.429,233.243 372.400,234.000 372.400 C 234.220 372.400,234.400 372.207,234.400 371.972 C 234.400 371.737,234.983 370.702,235.696 369.672 C 237.524 367.032,237.850 366.413,246.655 348.800 C 250.999 340.110,254.699 332.940,254.877 332.867 C 255.312 332.687,255.290 332.000,254.849 332.000 C 254.656 332.000,254.325 332.225,254.114 332.500 " stroke="none" fill="#929292" fill-rule="evenodd"></path><path id="path1" d="M164.000 168.039 C 160.761 169.938,161.000 167.387,161.000 200.068 L 161.000 229.136 162.000 230.207 C 164.490 232.873,167.706 233.452,170.746 231.781 C 174.102 229.935,174.000 230.659,174.000 208.803 C 174.000 186.428,173.763 187.541,177.800 190.941 C 180.414 193.142,181.100 193.696,187.600 198.859 C 189.910 200.694,192.200 202.540,192.690 202.961 C 196.755 206.458,199.625 207.463,202.281 206.318 C 203.480 205.801,206.929 203.294,208.773 201.600 C 209.133 201.270,210.140 200.470,211.013 199.821 C 211.886 199.173,212.690 198.538,212.800 198.411 C 212.910 198.283,213.809 197.554,214.799 196.790 C 217.546 194.667,218.066 194.250,218.773 193.600 C 219.133 193.270,220.140 192.466,221.013 191.813 C 221.886 191.160,223.040 190.222,223.578 189.729 C 225.578 187.897,225.600 188.101,225.600 208.523 C 225.600 230.104,225.527 229.606,229.006 231.700 C 233.021 234.118,238.362 231.822,239.009 227.400 C 239.138 226.520,239.189 213.470,239.122 198.400 L 239.000 171.000 238.005 169.874 C 235.460 166.993,231.725 166.305,228.892 168.196 C 226.381 169.871,225.434 170.566,224.600 171.343 C 224.160 171.753,222.810 172.833,221.600 173.743 C 220.390 174.653,218.770 175.982,218.000 176.695 C 217.230 177.409,216.493 177.995,216.362 177.997 C 216.231 177.998,215.601 178.465,214.962 179.032 C 214.323 179.600,212.810 180.814,211.600 181.730 C 210.390 182.646,209.310 183.503,209.200 183.635 C 208.471 184.507,200.265 190.800,199.856 190.800 C 199.578 190.800,199.002 190.484,198.575 190.097 C 198.149 189.710,196.540 188.410,195.000 187.207 C 193.460 186.003,192.110 184.920,192.000 184.799 C 191.890 184.678,190.990 183.959,190.000 183.200 C 189.010 182.441,188.110 181.722,188.000 181.601 C 187.890 181.480,186.540 180.399,185.000 179.200 C 183.460 178.001,182.110 176.920,182.000 176.799 C 181.890 176.678,180.990 175.959,180.000 175.200 C 179.010 174.441,178.110 173.722,178.000 173.601 C 177.890 173.480,176.540 172.399,175.000 171.200 C 173.460 170.001,172.110 168.905,172.000 168.765 C 170.727 167.150,166.215 166.741,164.000 168.039 " stroke="none" fill="#ffffff" fill-rule="evenodd"></path><path id="path2" d="M189.600 12.000 C 189.600 12.220,188.784 12.400,187.787 12.400 C 186.545 12.400,185.902 12.589,185.745 13.000 C 185.615 13.338,185.019 13.600,184.381 13.600 C 183.757 13.600,183.136 13.780,183.000 14.000 C 182.864 14.220,182.308 14.400,181.764 14.400 C 181.220 14.400,180.671 14.670,180.545 15.000 C 180.418 15.330,180.078 15.600,179.790 15.600 C 179.108 15.600,176.806 16.910,176.803 17.300 C 176.801 17.465,176.530 17.600,176.200 17.600 C 175.870 17.600,175.600 17.760,175.600 17.957 C 175.600 18.153,175.150 18.426,174.600 18.564 C 174.050 18.702,173.600 18.992,173.600 19.208 C 173.600 19.423,173.407 19.600,173.171 19.600 C 172.618 19.600,171.600 20.618,171.600 21.171 C 171.600 21.407,171.330 21.600,171.000 21.600 C 170.670 21.600,170.399 21.735,170.397 21.900 C 170.396 22.065,169.766 22.628,168.997 23.152 C 168.229 23.675,167.600 24.440,167.600 24.852 C 167.600 25.263,167.407 25.600,167.171 25.600 C 166.309 25.600,165.575 26.759,165.819 27.734 C 166.002 28.464,165.627 29.337,164.288 31.293 C 163.312 32.718,158.784 41.335,154.225 50.442 C 149.666 59.549,145.686 67.278,145.381 67.617 C 145.076 67.956,139.187 79.504,132.294 93.278 C 125.401 107.053,119.521 118.613,119.227 118.968 C 118.933 119.322,107.333 125.290,93.450 132.231 C 79.568 139.171,67.937 145.090,67.604 145.386 C 67.272 145.681,59.577 149.638,50.504 154.179 C 41.431 158.721,32.797 163.248,31.318 164.240 C 29.345 165.563,28.381 165.982,27.698 165.810 C 26.760 165.575,25.600 166.327,25.600 167.171 C 25.600 167.407,25.263 167.600,24.852 167.600 C 24.440 167.600,23.675 168.229,23.152 168.997 C 22.628 169.766,22.065 170.396,21.900 170.397 C 21.735 170.399,21.600 170.670,21.600 171.000 C 21.600 171.330,21.330 171.600,21.000 171.600 C 20.670 171.600,20.400 171.735,20.400 171.900 C 20.399 172.065,19.949 172.723,19.400 173.362 C 18.850 174.001,18.400 174.766,18.400 175.062 C 18.400 175.358,18.220 175.600,18.000 175.600 C 17.780 175.600,17.600 175.870,17.600 176.200 C 17.600 176.530,17.465 176.801,17.300 176.803 C 16.912 176.806,15.600 179.107,15.600 179.783 C 15.600 180.069,15.330 180.526,15.000 180.800 C 14.670 181.074,14.400 181.636,14.400 182.049 C 14.400 182.462,14.220 182.800,14.000 182.800 C 13.780 182.800,13.600 183.353,13.600 184.029 C 13.600 184.704,13.330 185.527,13.000 185.857 C 12.670 186.187,12.400 187.164,12.400 188.029 C 12.400 188.893,12.220 189.600,12.000 189.600 C 11.744 189.600,11.600 193.333,11.600 200.000 C 11.600 206.667,11.744 210.400,12.000 210.400 C 12.220 210.400,12.400 211.107,12.400 211.971 C 12.400 212.836,12.670 213.813,13.000 214.143 C 13.330 214.473,13.600 215.116,13.600 215.571 C 13.600 216.027,13.780 216.400,14.000 216.400 C 14.220 216.400,14.397 216.715,14.393 217.100 C 14.382 218.171,16.534 222.377,17.100 222.389 C 17.375 222.395,17.600 222.850,17.600 223.400 C 17.600 223.950,17.780 224.400,18.000 224.400 C 18.220 224.400,18.400 224.670,18.400 225.000 C 18.400 225.330,18.670 225.600,19.000 225.600 C 19.340 225.600,19.600 225.959,19.600 226.429 C 19.600 227.314,20.466 228.400,21.171 228.400 C 21.407 228.400,21.600 228.593,21.600 228.829 C 21.600 229.382,22.618 230.400,23.171 230.400 C 23.407 230.400,23.600 230.593,23.600 230.829 C 23.600 231.382,24.618 232.400,25.171 232.400 C 25.407 232.400,25.600 232.593,25.600 232.829 C 25.600 233.382,26.618 234.400,27.171 234.400 C 27.407 234.400,27.600 234.220,27.600 234.000 C 27.600 233.311,28.431 233.559,29.942 234.700 C 32.203 236.406,34.446 237.640,43.000 241.882 C 46.300 243.518,49.900 245.317,51.000 245.878 C 52.100 246.440,56.240 248.520,60.200 250.500 C 64.160 252.481,67.500 254.257,67.622 254.448 C 67.744 254.639,79.444 260.601,93.622 267.697 L 119.399 280.600 132.078 305.944 C 139.051 319.884,145.013 331.584,145.326 331.944 C 145.639 332.305,149.582 339.980,154.088 349.000 C 162.892 366.626,163.530 367.837,165.075 369.863 C 165.816 370.834,166.020 371.467,165.833 372.213 C 165.574 373.241,166.284 374.400,167.171 374.400 C 167.407 374.400,167.600 374.593,167.600 374.829 C 167.600 375.382,168.618 376.400,169.171 376.400 C 169.407 376.400,169.600 376.593,169.600 376.829 C 169.600 377.382,170.618 378.400,171.171 378.400 C 171.407 378.400,171.600 378.605,171.600 378.856 C 171.600 379.410,172.803 380.370,173.519 380.387 C 173.805 380.394,174.455 380.850,174.965 381.400 C 175.475 381.950,176.276 382.400,176.746 382.400 C 177.216 382.400,177.601 382.625,177.603 382.900 C 177.607 383.513,179.427 384.400,180.680 384.400 C 181.231 384.400,181.600 384.641,181.600 385.000 C 181.600 385.373,181.978 385.600,182.600 385.600 C 183.150 385.600,183.600 385.780,183.600 386.000 C 183.600 386.220,184.211 386.400,184.957 386.400 C 185.795 386.400,186.403 386.630,186.545 387.000 C 186.702 387.410,187.343 387.600,188.564 387.600 C 189.548 387.600,190.464 387.780,190.600 388.000 C 190.935 388.542,209.065 388.542,209.400 388.000 C 209.536 387.780,210.452 387.600,211.436 387.600 C 212.657 387.600,213.298 387.410,213.455 387.000 C 213.597 386.630,214.205 386.400,215.043 386.400 C 215.789 386.400,216.400 386.220,216.400 386.000 C 216.400 385.780,216.850 385.600,217.400 385.600 C 218.022 385.600,218.400 385.373,218.400 385.000 C 218.400 384.627,218.778 384.400,219.400 384.400 C 219.950 384.400,220.400 384.220,220.400 384.000 C 220.400 383.780,220.850 383.600,221.400 383.600 C 222.022 383.600,222.400 383.373,222.400 383.000 C 222.400 382.627,222.778 382.400,223.400 382.400 C 223.950 382.400,224.400 382.220,224.400 382.000 C 224.400 381.780,224.670 381.600,225.000 381.600 C 225.330 381.600,225.600 381.364,225.600 381.075 C 225.600 380.786,226.230 380.302,227.000 380.000 C 227.770 379.698,228.400 379.214,228.400 378.925 C 228.400 378.636,228.593 378.400,228.829 378.400 C 229.382 378.400,230.400 377.382,230.400 376.829 C 230.400 376.593,230.593 376.400,230.829 376.400 C 231.382 376.400,232.400 375.382,232.400 374.829 C 232.400 374.593,232.593 374.400,232.829 374.400 C 233.382 374.400,234.400 373.382,234.400 372.829 C 234.400 372.593,234.220 372.400,234.000 372.400 C 233.242 372.400,233.605 371.428,235.224 369.119 C 236.118 367.845,240.723 359.064,245.458 349.605 C 250.193 340.145,254.223 332.310,254.414 332.192 C 254.605 332.074,260.454 320.597,267.412 306.688 C 274.370 292.780,280.363 281.100,280.731 280.734 C 281.099 280.368,292.619 274.458,306.330 267.601 C 320.042 260.745,331.869 254.722,332.613 254.217 C 333.356 253.713,341.038 249.753,349.682 245.419 C 366.516 236.978,367.045 236.697,369.626 234.827 C 371.340 233.585,372.400 233.269,372.400 234.000 C 372.400 234.220,372.593 234.400,372.829 234.400 C 373.382 234.400,374.400 233.382,374.400 232.829 C 374.400 232.593,374.593 232.400,374.829 232.400 C 375.382 232.400,376.400 231.382,376.400 230.829 C 376.400 230.593,376.593 230.400,376.829 230.400 C 377.382 230.400,378.400 229.382,378.400 228.829 C 378.400 228.593,378.670 228.400,379.000 228.400 C 379.330 228.400,379.606 228.085,379.613 227.700 C 379.628 226.835,380.529 225.600,381.144 225.600 C 381.395 225.600,381.600 225.330,381.600 225.000 C 381.600 224.670,381.780 224.400,382.000 224.400 C 382.220 224.400,382.400 223.950,382.400 223.400 C 382.400 222.778,382.627 222.400,383.000 222.400 C 383.373 222.400,383.600 222.022,383.600 221.400 C 383.600 220.850,383.780 220.400,384.000 220.400 C 384.220 220.400,384.400 219.950,384.400 219.400 C 384.400 218.778,384.627 218.400,385.000 218.400 C 385.373 218.400,385.600 218.022,385.600 217.400 C 385.600 216.850,385.780 216.400,386.000 216.400 C 386.220 216.400,386.400 215.789,386.400 215.043 C 386.400 214.205,386.630 213.597,387.000 213.455 C 387.410 213.298,387.600 212.657,387.600 211.436 C 387.600 210.452,387.780 209.536,388.000 209.400 C 388.248 209.247,388.400 205.670,388.400 200.000 C 388.400 194.330,388.248 190.753,388.000 190.600 C 387.780 190.464,387.600 189.548,387.600 188.564 C 387.600 187.343,387.410 186.702,387.000 186.545 C 386.630 186.403,386.400 185.795,386.400 184.957 C 386.400 184.211,386.220 183.600,386.000 183.600 C 385.780 183.600,385.600 183.150,385.600 182.600 C 385.600 181.978,385.373 181.600,385.000 181.600 C 384.627 181.600,384.400 181.222,384.400 180.600 C 384.400 180.050,384.220 179.600,384.000 179.600 C 383.780 179.600,383.600 179.150,383.600 178.600 C 383.600 177.978,383.373 177.600,383.000 177.600 C 382.654 177.600,382.400 177.238,382.400 176.746 C 382.400 176.276,381.950 175.475,381.400 174.965 C 380.850 174.455,380.400 173.760,380.400 173.419 C 380.400 173.079,380.220 172.800,380.000 172.800 C 379.780 172.800,379.600 172.530,379.600 172.200 C 379.600 171.870,379.330 171.600,379.000 171.600 C 378.670 171.600,378.400 171.407,378.400 171.171 C 378.400 170.618,377.382 169.600,376.829 169.600 C 376.593 169.600,376.400 169.407,376.400 169.171 C 376.400 168.618,375.382 167.600,374.829 167.600 C 374.593 167.600,374.400 167.407,374.400 167.171 C 374.400 166.290,373.241 165.574,372.226 165.829 C 371.458 166.022,370.759 165.745,369.283 164.661 C 368.218 163.879,359.529 159.337,349.974 154.567 C 340.418 149.797,332.272 145.608,331.871 145.258 C 331.470 144.909,319.770 138.936,305.871 131.984 L 280.600 119.346 267.723 93.610 C 260.640 79.456,254.678 67.768,254.473 67.638 C 254.269 67.507,252.488 64.160,250.517 60.200 C 248.545 56.240,246.728 52.640,246.479 52.200 C 246.230 51.760,244.419 48.160,242.456 44.200 C 240.492 40.240,238.567 36.370,238.177 35.600 C 237.787 34.830,236.605 32.881,235.550 31.269 C 233.954 28.829,233.708 28.216,234.086 27.611 C 234.561 26.850,233.779 25.600,232.829 25.600 C 232.593 25.600,232.400 25.407,232.400 25.171 C 232.400 24.618,231.382 23.600,230.829 23.600 C 230.593 23.600,230.400 23.407,230.400 23.171 C 230.400 22.618,229.382 21.600,228.829 21.600 C 228.593 21.600,228.400 21.395,228.400 21.144 C 228.400 20.529,227.165 19.628,226.300 19.613 C 225.915 19.606,225.600 19.330,225.600 19.000 C 225.600 18.670,225.330 18.400,225.000 18.400 C 224.670 18.400,224.400 18.220,224.400 18.000 C 224.400 17.780,223.950 17.600,223.400 17.600 C 222.778 17.600,222.400 17.373,222.400 17.000 C 222.400 16.670,222.130 16.400,221.800 16.400 C 221.470 16.400,221.200 16.220,221.200 16.000 C 221.200 15.780,220.885 15.594,220.500 15.587 C 220.115 15.580,219.451 15.310,219.024 14.987 C 218.596 14.664,217.831 14.400,217.324 14.400 C 216.816 14.400,216.400 14.220,216.400 14.000 C 216.400 13.780,216.027 13.600,215.571 13.600 C 215.116 13.600,214.473 13.330,214.143 13.000 C 213.813 12.670,212.836 12.400,211.971 12.400 C 211.107 12.400,210.400 12.220,210.400 12.000 C 210.400 11.744,206.667 11.600,200.000 11.600 C 193.333 11.600,189.600 11.744,189.600 12.000 M172.715 168.437 C 173.972 169.377,175.090 170.252,175.200 170.380 C 175.399 170.613,182.489 176.319,185.414 178.600 C 186.260 179.260,187.683 180.396,188.576 181.125 C 190.809 182.946,191.146 183.214,193.200 184.806 C 194.190 185.572,195.090 186.290,195.200 186.400 C 199.092 190.292,199.922 190.453,202.952 187.900 C 204.323 186.745,206.232 185.170,207.193 184.400 C 208.154 183.630,209.612 182.460,210.431 181.800 C 211.251 181.140,213.064 179.703,214.461 178.606 C 215.857 177.509,217.090 176.511,217.200 176.387 C 217.310 176.263,219.020 174.913,221.000 173.387 C 222.980 171.861,224.801 170.430,225.047 170.206 C 229.870 165.818,233.826 165.199,237.254 168.296 C 240.131 170.896,240.002 169.389,239.981 200.149 C 239.959 231.007,240.111 229.314,237.148 231.696 C 233.095 234.953,227.395 233.436,225.356 228.557 C 224.908 227.485,224.800 223.605,224.800 208.613 C 224.800 198.376,224.696 190.000,224.569 190.000 C 224.442 190.000,219.897 193.555,214.469 197.900 C 199.886 209.574,199.741 209.610,192.206 203.434 C 191.110 202.535,189.940 201.585,189.606 201.322 C 185.846 198.359,180.157 193.800,180.000 193.624 C 179.890 193.501,178.990 192.777,178.000 192.015 C 177.010 191.253,176.140 190.488,176.067 190.315 C 175.369 188.667,175.200 192.197,175.200 208.425 L 175.200 226.850 174.210 228.925 C 171.593 234.411,164.649 234.987,161.100 230.014 L 160.000 228.472 160.000 200.059 C 160.000 172.123,160.014 171.622,160.821 170.254 C 163.352 165.964,168.384 165.195,172.715 168.437 " stroke="none" fill="#1d1e1e" fill-rule="evenodd"></path><path id="path3" d="M88.800 54.000 C 88.800 54.220,88.012 54.400,87.049 54.400 C 85.980 54.400,85.104 54.634,84.800 55.000 C 84.526 55.330,83.795 55.600,83.175 55.600 C 82.555 55.600,81.936 55.780,81.800 56.000 C 81.664 56.220,81.198 56.400,80.764 56.400 C 80.330 56.400,79.871 56.670,79.745 57.000 C 79.618 57.330,79.084 57.600,78.557 57.600 C 78.031 57.600,77.600 57.780,77.600 58.000 C 77.600 58.220,77.150 58.400,76.600 58.400 C 75.978 58.400,75.600 58.627,75.600 59.000 C 75.600 59.346,75.238 59.600,74.746 59.600 C 74.276 59.600,73.475 60.050,72.965 60.600 C 72.455 61.150,71.760 61.600,71.419 61.600 C 71.079 61.600,70.800 61.780,70.800 62.000 C 70.800 62.220,70.530 62.400,70.200 62.400 C 69.870 62.400,69.600 62.670,69.600 63.000 C 69.600 63.330,69.360 63.600,69.068 63.600 C 68.775 63.600,68.294 64.050,68.000 64.600 C 67.706 65.150,67.302 65.600,67.104 65.600 C 66.637 65.600,65.600 66.637,65.600 67.104 C 65.600 67.302,65.150 67.706,64.600 68.000 C 64.050 68.294,63.600 68.693,63.600 68.887 C 63.600 69.080,63.150 69.655,62.600 70.165 C 62.050 70.675,61.600 71.287,61.600 71.525 C 61.600 71.764,61.150 72.444,60.600 73.038 C 60.050 73.631,59.600 74.451,59.600 74.858 C 59.600 75.266,59.330 75.600,59.000 75.600 C 58.627 75.600,58.400 75.978,58.400 76.600 C 58.400 77.150,58.220 77.600,58.000 77.600 C 57.780 77.600,57.600 78.031,57.600 78.557 C 57.600 79.084,57.330 79.618,57.000 79.745 C 56.670 79.871,56.400 80.341,56.400 80.787 C 56.400 81.234,56.220 81.600,56.000 81.600 C 55.780 81.600,55.600 82.208,55.600 82.951 C 55.600 83.694,55.330 84.526,55.000 84.800 C 54.634 85.104,54.400 85.980,54.400 87.049 C 54.400 88.012,54.220 88.800,54.000 88.800 C 53.325 88.800,53.475 102.199,54.157 102.764 C 54.463 103.018,54.839 104.075,54.992 105.113 C 55.145 106.151,55.509 107.900,55.800 109.000 C 56.561 111.873,67.454 144.387,67.757 144.691 C 68.087 145.021,118.522 119.817,119.224 118.971 C 119.517 118.618,125.459 106.937,132.427 93.015 L 145.096 67.703 127.448 61.848 C 109.805 55.995,105.847 54.800,104.103 54.800 C 103.593 54.800,103.071 54.530,102.945 54.200 C 102.668 53.478,88.800 53.282,88.800 54.000 M297.122 54.035 C 297.042 54.274,296.082 54.629,294.988 54.824 C 292.494 55.267,255.457 67.217,254.914 67.754 C 254.866 67.801,260.626 79.428,267.714 93.591 L 280.600 119.342 306.333 132.218 C 321.210 139.662,332.132 144.906,332.223 144.647 C 338.067 128.027,345.185 105.334,345.195 103.287 C 345.198 102.786,345.470 102.271,345.800 102.145 C 346.518 101.869,346.706 90.237,346.000 89.800 C 345.780 89.664,345.600 88.663,345.600 87.576 C 345.600 86.086,345.452 85.600,345.000 85.600 C 344.567 85.600,344.400 85.156,344.400 84.000 C 344.400 83.120,344.220 82.400,344.000 82.400 C 343.780 82.400,343.600 81.854,343.600 81.187 C 343.600 80.479,343.351 79.879,343.000 79.745 C 342.670 79.618,342.400 79.084,342.400 78.557 C 342.400 78.031,342.220 77.600,342.000 77.600 C 341.780 77.600,341.600 77.249,341.600 76.820 C 341.600 76.391,341.365 75.896,341.078 75.720 C 340.792 75.544,340.263 74.770,339.903 74.000 C 339.544 73.230,338.879 72.335,338.425 72.012 C 337.971 71.688,337.600 71.221,337.600 70.974 C 337.600 70.727,337.150 70.001,336.600 69.362 C 336.051 68.723,335.601 68.065,335.600 67.900 C 335.600 67.735,335.330 67.600,335.000 67.600 C 334.670 67.600,334.400 67.407,334.400 67.171 C 334.400 66.618,333.382 65.600,332.829 65.600 C 332.593 65.600,332.400 65.407,332.400 65.171 C 332.400 64.618,331.382 63.600,330.829 63.600 C 330.593 63.600,330.400 63.425,330.400 63.210 C 330.400 62.996,329.835 62.529,329.145 62.172 C 328.455 61.815,327.489 61.090,326.999 60.561 C 326.509 60.033,325.743 59.600,325.297 59.600 C 324.851 59.600,324.382 59.330,324.255 59.000 C 324.129 58.670,323.659 58.400,323.213 58.400 C 322.766 58.400,322.400 58.220,322.400 58.000 C 322.400 57.780,321.950 57.600,321.400 57.600 C 320.850 57.600,320.400 57.423,320.400 57.208 C 320.400 56.992,319.950 56.702,319.400 56.564 C 318.850 56.426,318.400 56.153,318.400 55.957 C 318.400 55.760,317.847 55.600,317.171 55.600 C 316.496 55.600,315.673 55.330,315.343 55.000 C 315.013 54.670,314.046 54.400,313.195 54.400 C 312.344 54.400,311.536 54.220,311.400 54.000 C 311.047 53.430,297.312 53.463,297.122 54.035 M61.489 273.700 C 58.045 284.095,55.112 293.558,54.972 294.728 C 54.821 295.987,54.489 296.945,54.159 297.071 C 53.475 297.333,53.324 310.982,54.000 311.400 C 54.220 311.536,54.401 312.132,54.402 312.724 C 54.404 313.316,54.674 314.316,55.002 314.946 C 55.331 315.576,55.600 316.611,55.600 317.246 C 55.600 317.881,55.780 318.400,56.000 318.400 C 56.220 318.400,56.400 318.766,56.400 319.213 C 56.400 319.659,56.670 320.129,57.000 320.255 C 57.330 320.382,57.600 320.916,57.600 321.443 C 57.600 321.969,57.780 322.400,58.000 322.400 C 58.220 322.400,58.400 322.766,58.400 323.213 C 58.400 323.659,58.670 324.129,59.000 324.255 C 59.330 324.382,59.600 324.800,59.600 325.184 C 59.600 325.569,60.050 326.369,60.601 326.963 C 61.151 327.557,61.876 328.573,62.211 329.222 C 62.546 329.870,62.996 330.400,63.210 330.400 C 63.425 330.400,63.600 330.593,63.600 330.829 C 63.600 331.382,64.618 332.400,65.171 332.400 C 65.407 332.400,65.600 332.593,65.600 332.829 C 65.600 333.382,66.618 334.400,67.171 334.400 C 67.407 334.400,67.600 334.670,67.600 335.000 C 67.600 335.330,67.761 335.600,67.958 335.600 C 68.155 335.600,68.740 336.047,69.258 336.593 C 69.776 337.139,70.449 337.589,70.754 337.593 C 71.059 337.597,71.690 338.005,72.157 338.500 C 72.624 338.995,73.545 339.670,74.203 339.999 C 74.861 340.329,75.544 340.824,75.720 341.099 C 75.896 341.375,76.391 341.600,76.820 341.600 C 77.249 341.600,77.600 341.780,77.600 342.000 C 77.600 342.220,78.031 342.400,78.557 342.400 C 79.084 342.400,79.618 342.670,79.745 343.000 C 79.879 343.351,80.479 343.600,81.187 343.600 C 81.854 343.600,82.400 343.780,82.400 344.000 C 82.400 344.220,83.120 344.400,84.000 344.400 C 85.156 344.400,85.600 344.567,85.600 345.000 C 85.600 345.453,86.089 345.600,87.600 345.600 C 88.700 345.600,89.600 345.780,89.600 346.000 C 89.600 346.725,102.026 346.517,102.563 345.783 C 102.822 345.429,104.061 345.018,105.468 344.819 C 107.317 344.557,143.467 332.930,144.860 332.148 C 145.002 332.068,139.332 320.437,132.258 306.301 L 119.397 280.600 93.626 267.700 C 79.452 260.605,67.831 254.800,67.803 254.800 C 67.774 254.800,64.933 263.305,61.489 273.700 M306.600 267.462 C 292.740 274.395,281.099 280.367,280.731 280.734 C 279.764 281.697,254.792 331.750,255.123 332.062 C 255.755 332.658,290.499 343.995,293.614 344.621 C 295.476 344.996,297.144 345.549,297.320 345.851 C 297.711 346.522,309.391 346.662,309.800 346.000 C 309.936 345.780,311.027 345.600,312.224 345.600 C 313.892 345.600,314.400 345.460,314.400 345.000 C 314.400 344.567,314.844 344.400,316.000 344.400 C 316.880 344.400,317.600 344.220,317.600 344.000 C 317.600 343.780,318.037 343.600,318.571 343.600 C 319.106 343.600,319.813 343.330,320.143 343.000 C 320.473 342.670,321.116 342.400,321.571 342.400 C 322.027 342.400,322.400 342.220,322.400 342.000 C 322.400 341.780,322.766 341.600,323.213 341.600 C 323.659 341.600,324.129 341.330,324.255 341.000 C 324.382 340.670,324.736 340.400,325.043 340.400 C 325.349 340.400,325.600 340.220,325.600 340.000 C 325.600 339.780,325.935 339.600,326.344 339.600 C 326.753 339.600,327.426 339.150,327.839 338.600 C 328.252 338.050,328.817 337.600,329.095 337.600 C 329.373 337.600,329.600 337.330,329.600 337.000 C 329.600 336.667,329.956 336.400,330.400 336.400 C 330.840 336.400,331.200 336.220,331.200 336.000 C 331.200 335.780,331.470 335.600,331.800 335.600 C 332.130 335.600,332.400 335.330,332.400 335.000 C 332.400 334.670,332.640 334.400,332.932 334.400 C 333.225 334.400,333.706 333.950,334.000 333.400 C 334.294 332.850,334.710 332.400,334.923 332.400 C 335.481 332.400,336.372 331.122,336.387 330.300 C 336.394 329.915,336.670 329.600,337.000 329.600 C 337.330 329.600,337.600 329.373,337.600 329.095 C 337.600 328.817,338.050 328.252,338.600 327.839 C 339.150 327.426,339.600 326.753,339.600 326.344 C 339.600 325.935,339.780 325.600,340.000 325.600 C 340.220 325.600,340.400 325.330,340.400 325.000 C 340.400 324.670,340.545 324.400,340.723 324.400 C 341.064 324.400,342.400 321.624,342.400 320.915 C 342.400 320.685,342.670 320.274,343.000 320.000 C 343.330 319.726,343.600 319.074,343.600 318.551 C 343.600 318.028,343.780 317.600,344.000 317.600 C 344.220 317.600,344.400 316.957,344.400 316.171 C 344.400 315.386,344.670 314.473,345.000 314.143 C 345.350 313.793,345.600 312.815,345.600 311.795 C 345.600 310.834,345.780 309.936,346.000 309.800 C 346.706 309.363,346.518 297.731,345.800 297.455 C 345.470 297.329,345.198 296.814,345.195 296.313 C 345.184 294.131,333.075 256.129,332.072 255.128 C 331.923 254.978,320.460 260.529,306.600 267.462 " stroke="none" fill="#e42b26" fill-rule="evenodd"></path><path id="path4" d="M140.800 22.000 C 140.800 22.224,139.698 22.401,138.300 22.402 C 136.865 22.404,135.312 22.659,134.654 23.002 C 134.024 23.331,132.899 23.600,132.154 23.600 C 131.409 23.600,130.800 23.757,130.800 23.949 C 130.800 24.141,130.080 24.413,129.200 24.554 C 128.320 24.694,127.600 24.987,127.600 25.205 C 127.600 25.422,127.150 25.600,126.600 25.600 C 126.050 25.600,125.600 25.760,125.600 25.957 C 125.600 26.153,125.150 26.426,124.600 26.564 C 124.050 26.702,123.600 26.992,123.600 27.208 C 123.600 27.423,123.266 27.600,122.858 27.600 C 122.451 27.600,121.631 28.050,121.038 28.600 C 120.444 29.150,119.764 29.600,119.525 29.600 C 119.287 29.600,118.675 30.050,118.165 30.600 C 117.655 31.150,117.068 31.600,116.860 31.600 C 116.265 31.600,109.600 38.395,109.600 39.002 C 109.600 39.132,109.150 39.655,108.600 40.165 C 108.050 40.675,107.597 41.341,107.593 41.646 C 107.589 41.951,107.139 42.624,106.593 43.142 C 106.047 43.660,105.600 44.410,105.600 44.809 C 105.600 45.207,105.465 45.593,105.300 45.667 C 104.841 45.871,103.602 48.379,103.587 49.132 C 103.580 49.500,103.310 50.149,102.987 50.576 C 101.809 52.134,102.536 54.800,104.139 54.800 C 105.884 54.800,111.511 56.499,127.979 61.999 C 142.820 66.955,144.609 67.468,145.032 66.888 C 145.293 66.532,149.247 58.762,153.820 49.620 C 158.393 40.479,162.245 32.910,162.380 32.800 C 162.847 32.420,165.115 28.598,165.359 27.778 C 165.562 27.098,165.310 26.834,163.902 26.252 C 162.966 25.865,161.722 25.290,161.138 24.974 C 160.554 24.658,159.699 24.400,159.238 24.400 C 158.777 24.400,158.400 24.220,158.400 24.000 C 158.400 23.780,157.695 23.600,156.833 23.600 C 155.972 23.600,155.198 23.395,155.115 23.145 C 155.027 22.882,153.660 22.607,151.872 22.492 C 150.172 22.383,148.685 22.138,148.567 21.947 C 148.262 21.454,140.800 21.505,140.800 22.000 M250.980 21.961 C 250.771 22.159,249.347 22.407,247.816 22.512 C 246.278 22.617,244.966 22.903,244.883 23.151 C 244.801 23.398,244.163 23.603,243.467 23.606 C 242.003 23.613,239.388 24.452,238.707 25.133 C 238.450 25.390,238.066 25.600,237.854 25.600 C 236.558 25.600,234.400 27.022,234.400 27.877 C 234.400 28.385,234.580 28.800,234.800 28.800 C 235.020 28.800,235.200 29.055,235.200 29.367 C 235.200 29.678,235.338 29.993,235.507 30.067 C 236.071 30.311,238.290 34.148,240.790 39.200 C 242.151 41.950,243.460 44.560,243.700 45.000 C 243.939 45.440,245.738 49.040,247.697 53.000 C 251.863 61.423,251.682 61.060,252.483 62.600 C 252.826 63.260,253.443 64.488,253.854 65.329 C 254.264 66.170,254.781 67.011,255.002 67.197 C 255.235 67.393,262.612 65.125,272.517 61.812 C 281.929 58.663,290.118 55.968,290.715 55.821 C 291.312 55.675,292.949 55.312,294.352 55.016 C 295.756 54.720,297.058 54.235,297.246 53.939 C 297.804 53.059,297.650 51.194,297.000 50.945 C 296.670 50.818,296.400 50.294,296.400 49.781 C 296.400 49.267,296.220 48.736,296.000 48.600 C 295.780 48.464,295.600 47.998,295.600 47.564 C 295.600 47.130,295.330 46.671,295.000 46.545 C 294.670 46.418,294.400 45.984,294.400 45.581 C 294.400 45.177,294.220 44.736,294.000 44.600 C 293.780 44.464,293.600 44.085,293.600 43.757 C 293.600 43.430,293.150 42.745,292.600 42.235 C 292.050 41.725,291.597 41.059,291.593 40.754 C 291.589 40.449,291.139 39.776,290.593 39.258 C 290.047 38.740,289.600 38.155,289.600 37.958 C 289.600 37.761,289.330 37.600,289.000 37.600 C 288.670 37.600,288.400 37.412,288.400 37.183 C 288.400 36.391,285.677 33.600,284.904 33.600 C 284.627 33.600,284.400 33.407,284.400 33.171 C 284.400 32.711,283.417 31.600,283.009 31.600 C 282.873 31.600,282.345 31.150,281.835 30.600 C 281.325 30.050,280.614 29.600,280.254 29.600 C 279.894 29.600,279.600 29.428,279.600 29.219 C 279.600 29.009,278.925 28.523,278.100 28.140 C 277.275 27.756,276.510 27.342,276.400 27.221 C 275.938 26.712,273.480 25.600,272.817 25.600 C 272.421 25.600,271.874 25.330,271.600 25.000 C 271.326 24.670,270.674 24.400,270.151 24.400 C 269.628 24.400,269.200 24.220,269.200 24.000 C 269.200 23.780,268.435 23.594,267.500 23.587 C 266.565 23.580,265.451 23.310,265.024 22.987 C 264.533 22.616,263.326 22.400,261.747 22.400 C 260.372 22.400,259.136 22.220,259.000 22.000 C 258.692 21.502,251.500 21.467,250.980 21.961 M52.791 101.995 C 52.466 102.143,51.600 102.565,50.868 102.933 C 50.135 103.300,49.294 103.600,49.000 103.600 C 48.357 103.600,45.855 104.876,45.667 105.300 C 45.593 105.465,45.215 105.600,44.825 105.600 C 44.436 105.600,43.631 106.050,43.038 106.600 C 42.444 107.150,41.764 107.600,41.525 107.600 C 41.287 107.600,40.675 108.050,40.165 108.600 C 39.655 109.150,39.132 109.600,39.002 109.600 C 38.395 109.600,31.600 116.265,31.600 116.860 C 31.600 117.068,31.150 117.655,30.600 118.165 C 30.050 118.675,29.600 119.287,29.600 119.525 C 29.600 119.764,29.150 120.444,28.600 121.038 C 28.050 121.631,27.600 122.451,27.600 122.858 C 27.600 123.266,27.455 123.600,27.277 123.600 C 27.099 123.600,26.638 124.365,26.251 125.300 C 25.864 126.235,25.290 127.478,24.974 128.062 C 24.658 128.646,24.400 129.501,24.400 129.962 C 24.400 130.423,24.220 130.800,24.000 130.800 C 23.780 130.800,23.600 131.409,23.600 132.154 C 23.600 132.899,23.331 134.024,23.002 134.654 C 22.674 135.284,22.404 136.824,22.402 138.076 C 22.401 139.328,22.220 140.464,22.000 140.600 C 21.511 140.902,21.460 148.666,21.946 148.966 C 22.136 149.084,22.384 150.482,22.498 152.074 C 22.613 153.675,22.905 155.035,23.153 155.118 C 23.399 155.200,23.600 155.972,23.600 156.833 C 23.600 157.695,23.780 158.400,24.000 158.400 C 24.220 158.400,24.400 158.777,24.400 159.238 C 24.400 159.699,24.657 160.554,24.971 161.138 C 25.285 161.722,25.870 162.958,26.271 163.885 C 27.103 165.807,27.526 165.827,30.200 164.072 C 32.984 162.246,34.637 161.378,51.333 152.971 C 64.561 146.310,67.618 144.623,67.415 144.094 C 66.594 141.955,56.240 110.650,55.808 109.000 C 55.519 107.900,55.152 106.190,54.991 105.200 C 54.644 103.068,53.641 101.606,52.791 101.995 M345.467 102.267 C 345.320 102.413,345.198 102.908,345.195 103.367 C 345.185 105.220,343.448 110.999,338.043 127.173 C 334.923 136.508,332.453 144.360,332.553 144.621 C 332.653 144.883,339.905 148.668,348.668 153.032 C 363.196 160.269,369.406 163.601,370.032 164.496 C 371.384 166.428,374.400 164.227,374.400 161.308 C 374.400 160.856,374.670 160.382,375.000 160.255 C 375.330 160.129,375.600 159.580,375.600 159.036 C 375.600 158.492,375.780 157.936,376.000 157.800 C 376.220 157.664,376.400 156.858,376.400 156.010 C 376.400 155.131,376.615 154.395,376.900 154.300 C 377.730 154.025,377.842 136.629,377.022 135.377 C 376.680 134.855,376.400 133.792,376.400 133.014 C 376.400 132.236,376.220 131.600,376.000 131.600 C 375.780 131.600,375.600 131.054,375.600 130.387 C 375.600 129.679,375.351 129.079,375.000 128.945 C 374.670 128.818,374.400 128.311,374.400 127.819 C 374.400 126.848,373.510 124.828,372.337 123.138 C 371.932 122.554,371.600 121.789,371.600 121.438 C 371.600 121.087,371.424 120.800,371.208 120.800 C 370.993 120.800,370.449 120.080,370.000 119.200 C 369.551 118.320,369.038 117.600,368.859 117.600 C 368.681 117.600,368.294 117.150,368.000 116.600 C 367.706 116.050,367.225 115.600,366.932 115.600 C 366.640 115.600,366.400 115.355,366.400 115.056 C 366.400 114.757,365.747 113.902,364.949 113.156 C 364.152 112.410,362.988 111.305,362.363 110.700 C 361.738 110.095,361.122 109.600,360.994 109.600 C 360.866 109.600,360.345 109.150,359.835 108.600 C 359.325 108.050,358.614 107.600,358.254 107.600 C 357.894 107.600,357.600 107.461,357.600 107.291 C 357.600 107.121,356.925 106.628,356.100 106.195 C 355.275 105.762,354.510 105.316,354.400 105.204 C 353.813 104.607,351.408 103.600,350.568 103.600 C 350.035 103.600,349.600 103.428,349.600 103.219 C 349.600 102.559,346.003 101.730,345.467 102.267 M160.649 171.815 C 160.512 172.173,160.443 184.916,160.495 200.133 L 160.589 227.800 160.795 199.600 C 161.014 169.446,161.022 170.846,160.649 171.815 M239.389 200.000 C 239.389 214.850,239.439 220.925,239.500 213.500 C 239.561 206.075,239.561 193.925,239.500 186.500 C 239.439 179.075,239.389 185.150,239.389 200.000 M223.953 189.495 C 223.457 190.128,223.469 190.146,224.068 189.678 C 224.631 189.237,224.801 189.268,225.156 189.878 C 225.387 190.275,225.581 190.397,225.588 190.149 C 225.614 189.186,224.534 188.754,223.953 189.495 M174.183 189.700 C 174.078 189.975,174.039 198.570,174.096 208.800 L 174.200 227.400 174.400 208.300 C 174.510 197.795,174.549 189.200,174.487 189.200 C 174.426 189.200,174.289 189.425,174.183 189.700 M225.384 208.800 C 225.384 218.810,225.436 222.905,225.500 217.900 C 225.563 212.895,225.563 204.705,225.500 199.700 C 225.436 194.695,225.384 198.790,225.384 208.800 M26.900 234.665 C 26.625 234.776,26.400 235.201,26.400 235.610 C 26.400 236.018,26.220 236.464,26.000 236.600 C 25.780 236.736,25.600 237.209,25.600 237.652 C 25.600 238.095,25.330 238.727,25.000 239.057 C 24.670 239.387,24.400 239.994,24.400 240.405 C 24.400 240.816,24.220 241.264,24.000 241.400 C 23.780 241.536,23.600 242.342,23.600 243.190 C 23.600 244.039,23.386 244.805,23.124 244.892 C 22.839 244.987,22.581 246.168,22.482 247.825 C 22.391 249.351,22.155 250.771,21.958 250.980 C 21.498 251.468,21.488 258.683,21.947 258.967 C 22.138 259.085,22.383 260.572,22.492 262.272 C 22.607 264.060,22.882 265.427,23.145 265.515 C 23.395 265.598,23.600 266.361,23.600 267.210 C 23.600 268.058,23.780 268.864,24.000 269.000 C 24.220 269.136,24.400 269.524,24.400 269.863 C 24.400 270.202,24.689 271.136,25.043 271.940 C 26.155 274.464,26.993 276.193,27.204 276.400 C 27.316 276.510,27.762 277.275,28.195 278.100 C 28.628 278.925,29.121 279.600,29.291 279.600 C 29.461 279.600,29.600 279.844,29.600 280.142 C 29.600 280.439,30.050 281.169,30.600 281.762 C 31.150 282.356,31.600 282.935,31.600 283.049 C 31.600 283.425,32.734 284.400,33.171 284.400 C 33.407 284.400,33.600 284.640,33.600 284.933 C 33.600 285.627,36.373 288.400,37.067 288.400 C 37.360 288.400,37.600 288.640,37.600 288.932 C 37.600 289.225,38.050 289.706,38.600 290.000 C 39.150 290.294,39.600 290.676,39.600 290.849 C 39.600 291.021,40.247 291.469,41.037 291.844 C 41.827 292.219,42.566 292.768,42.680 293.063 C 42.793 293.358,43.216 293.600,43.619 293.600 C 44.023 293.600,44.464 293.780,44.600 294.000 C 44.736 294.220,45.177 294.400,45.581 294.400 C 45.984 294.400,46.418 294.670,46.545 295.000 C 46.671 295.330,47.130 295.600,47.564 295.600 C 47.998 295.600,48.464 295.780,48.600 296.000 C 48.736 296.220,49.267 296.400,49.781 296.400 C 50.294 296.400,50.818 296.670,50.945 297.000 C 51.207 297.683,52.889 297.794,53.997 297.201 C 54.529 296.917,54.821 296.146,55.019 294.501 C 55.171 293.236,58.056 283.920,61.429 273.800 C 66.190 259.520,67.455 255.295,67.082 254.931 C 66.817 254.674,59.154 250.747,50.054 246.207 C 34.191 238.291,31.140 236.649,29.425 235.100 C 28.658 234.408,27.872 234.273,26.900 234.665 M369.540 235.821 C 368.517 236.589,359.983 241.073,350.577 245.786 C 341.171 250.498,333.223 254.606,332.916 254.913 C 332.437 255.391,333.190 257.971,338.142 272.836 C 343.214 288.060,344.859 293.527,345.294 296.600 C 345.441 297.643,348.010 297.952,348.783 297.020 C 349.066 296.679,349.715 296.400,350.225 296.400 C 350.735 296.400,351.264 296.220,351.400 296.000 C 351.536 295.780,352.002 295.600,352.436 295.600 C 352.870 295.600,353.329 295.330,353.455 295.000 C 353.582 294.670,353.909 294.400,354.181 294.400 C 354.921 294.400,356.892 293.346,357.889 292.418 C 358.371 291.968,358.926 291.600,359.121 291.600 C 359.316 291.600,359.999 291.150,360.638 290.600 C 361.277 290.051,361.935 289.601,362.100 289.600 C 362.265 289.600,362.400 289.330,362.400 289.000 C 362.400 288.670,362.593 288.400,362.829 288.400 C 363.382 288.400,364.400 287.382,364.400 286.829 C 364.400 286.593,364.593 286.400,364.829 286.400 C 365.382 286.400,366.400 285.382,366.400 284.829 C 366.400 284.593,366.670 284.400,367.000 284.400 C 367.330 284.400,367.600 284.265,367.600 284.100 C 367.601 283.935,368.051 283.277,368.600 282.638 C 369.150 281.999,369.600 281.316,369.600 281.121 C 369.600 280.926,369.968 280.371,370.418 279.889 C 371.368 278.869,372.400 276.916,372.400 276.139 C 372.400 275.842,372.577 275.600,372.792 275.600 C 373.008 275.600,373.298 275.150,373.436 274.600 C 373.574 274.050,373.847 273.600,374.043 273.600 C 374.240 273.600,374.400 273.172,374.400 272.649 C 374.400 272.126,374.670 271.474,375.000 271.200 C 375.330 270.926,375.600 270.184,375.600 269.551 C 375.600 268.918,375.780 268.400,376.000 268.400 C 376.220 268.400,376.400 267.519,376.400 266.443 C 376.400 265.072,376.580 264.417,377.000 264.255 C 377.508 264.060,377.600 262.680,377.600 255.241 C 377.600 247.966,377.497 246.354,377.000 245.857 C 376.666 245.523,376.400 244.545,376.400 243.652 C 376.400 242.769,376.220 241.936,376.000 241.800 C 375.780 241.664,375.600 241.126,375.600 240.605 C 375.600 240.084,375.330 239.387,375.000 239.057 C 374.670 238.727,374.400 238.084,374.400 237.629 C 374.400 237.173,374.220 236.800,374.000 236.800 C 373.780 236.800,373.600 236.369,373.600 235.843 C 373.600 234.942,372.925 234.385,371.867 234.412 C 371.610 234.419,370.563 235.053,369.540 235.821 M125.400 338.621 C 115.280 342.010,106.427 344.787,105.726 344.792 C 102.659 344.812,101.089 347.432,103.000 349.343 C 103.330 349.673,103.600 350.209,103.600 350.535 C 103.600 351.138,105.571 355.236,106.036 355.600 C 106.177 355.710,106.419 356.205,106.573 356.700 C 106.728 357.195,107.022 357.600,107.227 357.600 C 107.432 357.600,107.600 357.827,107.600 358.104 C 107.600 358.381,108.050 359.093,108.600 359.687 C 109.150 360.280,109.600 360.876,109.600 361.011 C 109.600 361.418,110.712 362.400,111.171 362.400 C 111.407 362.400,111.600 362.593,111.600 362.829 C 111.600 363.227,111.838 363.558,113.081 364.886 C 113.954 365.820,114.760 366.400,115.183 366.400 C 115.412 366.400,115.600 366.670,115.600 367.000 C 115.600 367.330,115.735 367.600,115.900 367.600 C 116.065 367.600,116.908 368.230,117.773 369.000 C 118.638 369.770,119.588 370.400,119.885 370.400 C 120.182 370.400,120.529 370.670,120.655 371.000 C 120.782 371.330,121.164 371.600,121.505 371.600 C 121.846 371.600,122.714 372.050,123.436 372.600 C 124.157 373.150,125.029 373.600,125.373 373.600 C 125.718 373.600,126.000 373.780,126.000 374.000 C 126.000 374.220,126.546 374.400,127.213 374.400 C 127.921 374.400,128.521 374.649,128.655 375.000 C 128.785 375.338,129.381 375.600,130.019 375.600 C 130.643 375.600,131.264 375.780,131.400 376.000 C 131.536 376.220,132.312 376.406,133.124 376.413 C 133.936 376.420,134.949 376.690,135.376 377.013 C 136.002 377.486,137.792 377.600,144.600 377.600 C 151.408 377.600,153.198 377.486,153.824 377.013 C 154.251 376.690,155.264 376.420,156.076 376.413 C 156.888 376.406,157.664 376.220,157.800 376.000 C 157.936 375.780,158.492 375.600,159.036 375.600 C 159.580 375.600,160.129 375.330,160.255 375.000 C 160.397 374.630,161.005 374.400,161.843 374.400 C 162.589 374.400,163.200 374.220,163.200 374.000 C 163.200 373.780,163.538 373.600,163.951 373.600 C 165.558 373.600,165.975 371.655,164.659 370.302 C 163.541 369.153,161.782 365.869,153.600 349.649 C 148.407 339.354,144.762 332.572,144.400 332.529 C 144.070 332.490,135.520 335.232,125.400 338.621 M254.974 332.706 C 254.740 332.868,250.995 340.110,246.652 348.800 C 237.822 366.470,237.531 367.022,235.650 369.739 C 234.167 371.882,234.319 373.600,235.991 373.600 C 236.436 373.600,236.800 373.780,236.800 374.000 C 236.800 374.220,237.321 374.400,237.957 374.400 C 238.617 374.400,239.213 374.658,239.345 375.000 C 239.471 375.330,240.020 375.600,240.564 375.600 C 241.108 375.600,241.664 375.780,241.800 376.000 C 241.936 376.220,242.769 376.400,243.652 376.400 C 244.545 376.400,245.523 376.666,245.857 377.000 C 246.354 377.497,247.966 377.600,255.241 377.600 C 262.680 377.600,264.060 377.508,264.255 377.000 C 264.411 376.594,265.047 376.400,266.219 376.400 C 267.173 376.400,268.064 376.220,268.200 376.000 C 268.336 375.780,268.955 375.600,269.575 375.600 C 270.195 375.600,270.926 375.330,271.200 375.000 C 271.474 374.670,272.025 374.400,272.425 374.400 C 272.825 374.400,273.264 374.220,273.400 374.000 C 273.536 373.780,274.002 373.600,274.436 373.600 C 274.870 373.600,275.329 373.330,275.455 373.000 C 275.582 372.670,276.116 372.400,276.643 372.400 C 277.169 372.400,277.600 372.220,277.600 372.000 C 277.600 371.780,277.879 371.600,278.219 371.600 C 278.560 371.600,279.255 371.150,279.765 370.600 C 280.275 370.050,280.868 369.600,281.084 369.600 C 281.299 369.600,281.999 369.150,282.638 368.600 C 283.277 368.051,283.935 367.601,284.100 367.600 C 284.265 367.600,284.400 367.330,284.400 367.000 C 284.400 366.670,284.593 366.400,284.829 366.400 C 285.064 366.400,285.514 366.143,285.829 365.829 C 286.143 365.514,286.400 365.064,286.400 364.829 C 286.400 364.593,286.593 364.400,286.829 364.400 C 287.064 364.400,287.514 364.143,287.829 363.829 C 288.143 363.514,288.400 363.064,288.400 362.829 C 288.400 362.593,288.670 362.400,289.000 362.400 C 289.330 362.400,289.600 362.265,289.600 362.100 C 289.601 361.935,290.051 361.277,290.600 360.638 C 291.150 359.999,291.600 359.316,291.600 359.121 C 291.600 358.926,291.968 358.371,292.418 357.889 C 293.346 356.892,294.400 354.921,294.400 354.181 C 294.400 353.909,294.670 353.582,295.000 353.455 C 295.330 353.329,295.600 352.870,295.600 352.436 C 295.600 352.002,295.780 351.536,296.000 351.400 C 296.220 351.264,296.400 350.735,296.400 350.225 C 296.400 349.715,296.670 349.074,297.000 348.800 C 297.628 348.279,297.798 346.520,297.294 345.752 C 297.132 345.506,295.476 344.998,293.614 344.623 C 291.751 344.248,282.456 341.344,272.959 338.170 C 263.461 334.997,255.625 332.403,255.545 332.406 C 255.465 332.409,255.208 332.544,254.974 332.706 " stroke="none" fill="#fdb813" fill-rule="evenodd"></path></g></svg>